<svg xmlns="http://www.w3.org/2000/svg" width="22" height="22" viewBox="0 0 22 22">
  <g id="x-circle" transform="translate(-1 -1)">
    <circle id="Ellipse_1" data-name="Ellipse 1" cx="10" cy="10" r="10" transform="translate(2 2)" stroke-width="2" stroke="currentColor" stroke-linecap="round" stroke-linejoin="round" fill="none"/>
    <path id="Path_2" data-name="Path 2" d="M10.4.675A17.715,17.715,0,0,0,5.827-.491,16.056,16.056,0,0,0,1.3-.271" transform="translate(6 12)" fill="none" stroke="currentColor" stroke-linecap="round" stroke-width="2"/>
    <path id="Path_3" data-name="Path 3" d="M9.12.787A17.317,17.317,0,0,0,5.414-.1a11.782,11.782,0,0,0-3.3.141" transform="translate(6 15)" fill="none" stroke="currentColor" stroke-linecap="round" stroke-width="2"/>
    <path id="Path_1" data-name="Path 1" d="M.507.251A22.6,22.6,0,0,1,6.748-.015a14.934,14.934,0,0,1,5.339,1.431" transform="translate(6 8)" fill="none" stroke="currentColor" stroke-linecap="round" stroke-width="2"/>
  </g>
</svg>
